<svg xmlns:svg="http://www.w3.org/2000/svg" xmlns="http://www.w3.org/2000/svg" viewBox="0 0 32 40" version="1.1" x="0" y="0"><g transform="translate(0,-1020.3622)"><path d="M0.5 0A0.5 0.5 0 0 0 0 0.5L0 31.5A0.5 0.5 0 0 0 0.5 32L31.5 32A0.5 0.5 0 0 0 32 31.5L32 0.5A0.5 0.5 0 0 0 31.5 0L0.5 0zM1 1L31 1 31 31 1 31 1 1zM3.5 2C2.7 2 2 2.7 2 3.5 2 4.3 2.7 5 3.5 5 4.3 5 5 4.3 5 3.5 5 2.7 4.3 2 3.5 2zM16 2C8.3 2 2 8.3 2 16 2 23.7 8.3 30 16 30 23.7 30 30 23.7 30 16 30 8.3 23.7 2 16 2zM28.5 2C27.7 2 27 2.7 27 3.5 27 4.3 27.7 5 28.5 5 29.3 5 30 4.3 30 3.5 30 2.7 29.3 2 28.5 2zM3.5 3C3.8 3 4 3.2 4 3.5 4 3.8 3.8 4 3.5 4 3.2 4 3 3.8 3 3.5 3 3.2 3.2 3 3.5 3zM16 3C23.2 3 29 8.8 29 16 29 23.2 23.2 29 16 29 8.8 29 3 23.2 3 16 3 8.8 8.8 3 16 3zM28.5 3C28.8 3 29 3.2 29 3.5 29 3.8 28.8 4 28.5 4 28.2 4 28 3.8 28 3.5 28 3.2 28.2 3 28.5 3zM17.7 4C17 4 16.3 4 15.7 4.1 15.1 4.2 14.7 4.2 14.3 4.4 13.4 4.9 13 6 13 7.3 13 8.4 13.3 9.9 13.9 11.5 12.8 12 11.8 13 11.3 14.2 10.1 14.5 8.8 13.7 7.7 12.8 7.2 12.3 6.7 11.8 6.2 11.4 6 11.2 5.8 11 5.6 10.9 5.4 10.7 5.2 10.6 4.9 10.6 4.9 10.6 4.9 10.6 4.9 10.6 4.9 10.6 4.9 10.6 4.9 10.6A0.5 0.5 0 0 0 4.5 10.9C4.5 10.9 4.4 11 4.4 11A0.5 0.5 0 0 0 4.4 11C4.2 11.4 4.2 11.9 4.1 12.5 4 13.1 4 13.8 4 14.5 4 15.2 4 15.8 4.1 16.4 4.2 17 4.2 17.5 4.4 17.8 4.9 18.7 6 19.1 7.3 19.1 8.5 19.1 9.9 18.8 11.5 18.2 12 19.3 13 20.2 14.1 20.6 14.2 21.3 14.1 21.9 13.8 22.6 13.5 23.3 13 23.9 12.5 24.5 11.9 25.1 11.4 25.6 11 26 10.8 26.2 10.7 26.4 10.6 26.7 10.5 26.8 10.5 26.9 10.5 27.1 10.6 27.3 10.8 27.5 10.9 27.6A0.5 0.5 0 0 0 10.9 27.6C11.3 27.8 11.8 27.8 12.4 27.9 13 28 13.7 28 14.4 28 15.1 28 15.7 28 16.3 27.9 16.9 27.8 17.3 27.8 17.7 27.6 18.6 27.1 19 26 19 24.7 19 23.6 18.7 22.1 18.1 20.5 19.2 20 20.1 19.1 20.6 18 21.2 17.9 21.9 18 22.6 18.3 23.3 18.6 23.9 19.1 24.5 19.7 25.1 20.2 25.6 20.7 26 21.1 26.2 21.3 26.4 21.4 26.7 21.5 26.8 21.6 26.9 21.6 27.1 21.6 27.3 21.5 27.5 21.4 27.6 21.2A0.5 0.5 0 0 0 27.6 21.2C27.8 20.8 27.8 20.3 27.9 19.7 28 19.1 28 18.4 28 17.8 28 17.1 28 16.4 27.9 15.8 27.8 15.2 27.8 14.8 27.6 14.4 27.1 13.5 26 13.1 24.7 13.1L24.7 13.1C23.6 13.1 22.2 13.4 20.6 14 20.1 12.8 19.1 11.9 17.9 11.4 17.8 10.7 17.9 10.1 18.2 9.4 18.5 8.7 19 8.1 19.5 7.5 20.1 6.9 20.6 6.4 21 6 21.2 5.8 21.3 5.6 21.4 5.3 21.5 5.2 21.5 5.1 21.5 4.9 21.4 4.7 21.3 4.5 21.1 4.4A0.5 0.5 0 0 0 21.1 4.4C20.7 4.2 20.2 4.2 19.6 4.1 19 4 18.3 4 17.7 4zM17.7 5C18.3 5 19 5 19.5 5.1 19.9 5.1 20.1 5.2 20.3 5.2 20.3 5.3 20.3 5.3 20.2 5.3 19.9 5.7 19.4 6.2 18.8 6.8 18.2 7.5 17.7 8.2 17.3 9 17 9.6 16.9 10.4 16.9 11.1 16.6 11 16.3 11 16 11 15.6 11 15.3 11 14.9 11.1 14.3 9.6 14 8.3 14 7.3 14 6.2 14.3 5.6 14.8 5.3 14.8 5.3 15.3 5.1 15.8 5.1 16.3 5 17 5 17.7 5L17.7 5zM5.2 11.8C5.3 11.9 5.4 12 5.5 12.1 5.9 12.5 6.5 13 7.1 13.5 8.1 14.4 9.5 15.2 11.1 15.1 11 15.4 11 15.7 11 16 11 16.4 11.1 16.8 11.1 17.1 11.1 17.2 11.1 17.2 11.1 17.2 9.6 17.8 8.3 18.1 7.3 18.1 6.2 18.1 5.6 17.8 5.3 17.3 5.3 17.3 5.1 16.9 5.1 16.3 5 15.8 5 15.1 5 14.5 5 13.8 5 13.1 5.1 12.6 5.1 12.2 5.2 12 5.2 11.8zM16 12C18.2 12 20 13.8 20 16 20 16 20 16 20 16 20 18.2 18.2 20 16 20 13.8 20 12 18.2 12 16 12 13.8 13.8 12 16 12zM16 13C14.3 13 13 14.3 13 16 13 17.7 14.3 19 16 19 17.7 19 19 17.7 19 16 19 14.3 17.7 13 16 13zM16 14C17.1 14 18 14.9 18 16 18 17.1 17.1 18 16 18 14.9 18 14 17.1 14 16 14 14.9 14.9 14 16 14zM24.7 14.1L24.7 14.1C25.8 14.1 26.4 14.4 26.7 14.9 26.7 14.9 26.9 15.4 26.9 15.9 27 16.4 27 17.1 27 17.8 27 18.4 27 19.1 26.9 19.6 26.9 20 26.8 20.2 26.8 20.4 26.7 20.4 26.7 20.4 26.7 20.3 26.3 20 25.8 19.5 25.2 18.9 24.5 18.3 23.8 17.8 23 17.4 22.4 17.1 21.6 17 20.9 17 21 16.7 21 16.4 21 16 21 15.7 21 15.3 20.9 15 22.4 14.4 23.7 14.1 24.7 14.1zM17.1 20.9C17.7 22.4 18 23.7 18 24.7 18 25.8 17.7 26.4 17.2 26.7 17.2 26.7 16.7 26.9 16.2 26.9 15.7 27 15 27 14.4 27 13.7 27 13 27 12.5 26.9 12.1 26.9 11.9 26.8 11.7 26.8 11.7 26.7 11.7 26.7 11.8 26.7 12.1 26.3 12.7 25.8 13.2 25.2 13.8 24.5 14.4 23.8 14.7 23 15 22.4 15.1 21.6 15.1 20.9 15.4 21 15.7 21 16 21 16.4 21 16.7 20.9 17.1 20.9zM3.5 27C2.7 27 2 27.7 2 28.5 2 29.3 2.7 30 3.5 30 4.3 30 5 29.3 5 28.5 5 27.7 4.3 27 3.5 27zM28.5 27C27.7 27 27 27.7 27 28.5 27 29.3 27.7 30 28.5 30 29.3 30 30 29.3 30 28.5 30 27.7 29.3 27 28.5 27zM3.5 28C3.8 28 4 28.2 4 28.5 4 28.8 3.8 29 3.5 29 3.2 29 3 28.8 3 28.5 3 28.2 3.2 28 3.5 28zM28.5 28C28.8 28 29 28.2 29 28.5 29 28.8 28.8 29 28.5 29 28.2 29 28 28.8 28 28.5 28 28.2 28.2 28 28.5 28z" transform="translate(0,1020.3622)" style="baseline-shift:baseline;block-progression:tb;color-interpolation-filters:linearRGB;color-interpolation:sRGB;color-rendering:auto;direction:ltr;fill:#000;font-family:sans-serif;font-size:medium;image-rendering:auto;isolation:auto;letter-spacing:normal;line-height:normal;mix-blend-mode:normal;shape-rendering:auto;solid-color:#000000;solid-opacity:1;text-align:start;text-anchor:start;text-decoration-color:#000000;text-decoration-line:none;text-decoration-style:solid;text-decoration:none;text-indent:0;text-rendering:auto;text-transform:none;white-space:normal;word-spacing:normal;writing-mode:lr-tb"/></g></svg>