<svg width="75" height="75" xmlns="http://www.w3.org/2000/svg">

 <g>
  <title>background</title>
  <rect fill="none" id="canvas_background" height="77" width="77" y="-1" x="-1"/>
 </g>
 <g>
  <title>Layer 1</title>
  <polygon stroke="null" id="svg_1" points="63.24325180053711,67.0398822426796 12.243389129638672,67.0398822426796 12.243389129638672,53.03980976343155 9.243387222290039,53.03980976343155 9.243387222290039,70.03988987207413 66.24323272705078,70.03988987207413 66.24323272705078,53.03980976343155 63.24325180053711,53.03980976343155 "/>
  <polygon id="svg_2" points="37.74338912963867,4.531856596469879 9.243387222290039,29.131846964359283 9.243387222290039,35.63184696435928 12.243389129638672,35.63184696435928 12.243389129638672,30.43184620141983 37.74338912963867,8.531854212284088 63.24325180053711,30.43184620141983 63.24325180053711,35.63184696435928 66.24323272705078,35.63184696435928 66.24323272705078,29.131846964359283 "/>
  <path stroke="null" id="svg_3" d="m30.338638,47.485837c-2.429721,-2.4 -5.219401,-6 -6.659236,-9.1l-0.08999,4c-17.637977,-6.2 -23.397316,5.2 -23.667285,5.6c0.269969,-0.4 5.57936,-7.9 22.31744,-1.8l-2.249742,2.8c2.78968,-1.2 7.019195,-1.6 10.348813,-1.5zm44.36491,-9.3c-1.979773,2.9 -4.049535,7 -4.949432,10.4l-0.809907,-3.9c-16.198142,9.9 -23.847264,0 -24.207223,-0.3c0.359959,0.3 6.929205,6.6 22.13746,-3.1l-2.69969,-2.3c3.059649,0.5 7.379153,0 10.528792,-0.8z"/>
 </g>
</svg>