<svg xmlns:svg="http://www.w3.org/2000/svg" xmlns="http://www.w3.org/2000/svg" viewBox="0 0 48 60" version="1.1" x="0" y="0"><style>.s0{baseline-shift:baseline;block-progression:tb;color-interpolation-filters:linearRGB;color-interpolation:sRGB;color-rendering:auto;direction:ltr;fill:#000;font-family:sans-serif;font-size:medium;image-rendering:auto;isolation:auto;letter-spacing:normal;line-height:normal;mix-blend-mode:normal;shape-rendering:auto;solid-color:#000000;solid-opacity:1;text-align:start;text-anchor:start;text-decoration-color:#000000;text-decoration-line:none;text-decoration-style:solid;text-decoration:none;text-indent:0;text-rendering:auto;text-transform:none;white-space:normal;word-spacing:normal;writing-mode:lr-tb;}</style><g transform="translate(0,-1004.3622)"><path d="m17 1008.4c-2.7 0-5 2.2-5 5 0 7.2 0 14.4 0 21.6-2.5 2.1-3.6 5.5-2.6 8.7 1 3.4 4.1 5.7 7.6 5.7 3.5 0 6.6-2.3 7.6-5.7 1-3.2-0.1-6.6-2.6-8.7 0-7.2 0-14.4 0-21.6 0-2.7-2.3-5-5-5zm0 2c1.7 0 3 1.3 3 3 0 7.5 0 15 0 22.5l0.4 0.3c2.2 1.5 3.1 4.3 2.3 6.9-0.8 2.6-3.1 4.3-5.7 4.3l0 0c-2.6 0-4.9-1.7-5.7-4.3-0.8-2.6 0.1-5.4 2.3-6.9l0.4-0.3c0-7.5 0-15 0-22.5 0-1.7 1.3-3 3-3zM17 1037.4c-2.2 0-4 1.8-4 4 0 2.2 1.8 4 4 4 2.2 0 4-1.8 4-4 0-2.2-1.8-4-4-4zm0 2c1.1 0 2 0.9 2 2 0 1.1-0.9 2-2 2-1.1 0-2-0.9-2-2 0-1.1 0.9-2 2-2z" class="s0"/><path d="M17 1025.4A1 1 0 0 0 16 1026.4l0 12a1 1 0 1 0 2 0l0-12a1 1 0 0 0-1-1z" class="s0"/><path d="m29 1009.4a1 1 0 0 0-0.8 0.4c0 0-0.5 0.8-1 1.7-0.3 0.5-0.5 0.9-0.7 1.4C26.2 1013.4 26 1013.8 26 1014.4c0 1.6 1.4 3 3 3 1.6 0 3-1.4 3-3 0-0.6-0.2-1-0.4-1.5-0.2-0.5-0.5-1-0.7-1.4-0.5-0.9-1-1.7-1-1.7a1 1 0 0 0-0.9-0.4zM29 1012.2c0.1 0.1 0.1 0.1 0.1 0.2 0.2 0.4 0.5 0.9 0.6 1.2 0.2 0.4 0.2 0.7 0.2 0.7 0 0.6-0.4 1-1 1-0.6 0-1-0.4-1-1 0 0 0.1-0.3 0.2-0.7 0.2-0.4 0.4-0.8 0.6-1.2 0.1-0.1 0.1-0.1 0.1-0.2zM36 1014.4a1 1 0 0 0-0.8 0.4c0 0-0.5 0.8-1 1.7-0.3 0.5-0.5 0.9-0.7 1.4C33.2 1018.4 33 1018.8 33 1019.4c0 1.6 1.4 3 3 3 1.6 0 3-1.4 3-3 0-0.6-0.2-1-0.4-1.5-0.2-0.5-0.5-1-0.7-1.4-0.5-0.9-1-1.7-1-1.7a1 1 0 0 0-0.9-0.4zM36 1017.2c0.1 0.1 0.1 0.1 0.1 0.2 0.2 0.4 0.5 0.9 0.6 1.2 0.2 0.4 0.2 0.7 0.2 0.7 0 0.6-0.4 1-1 1-0.6 0-1-0.4-1-1 0 0 0.1-0.3 0.2-0.7 0.2-0.4 0.4-0.8 0.6-1.2 0.1-0.1 0.1-0.1 0.1-0.2z" class="s0"/></g></svg>